C:\Users\u0088756\Documents\documenten\software\SoftwareProjects\DC_TrackingSimulation\Data\FitMuscleFunctions\dummy_motion_RightSubtalar.mot
nRows=23
nColumns=14

name C:\Users\u0088756\Documents\documenten\software\SoftwareProjects\DC_TrackingSimulation\Data\FitMuscleFunctions\dummy_motion_RightSubtalar.mot
datacolumns 14
datarows 23
range 25.0100000000 25.2300000000
endheader
time	first_body_list	first_body_rotation	first_body_tilt	first_body_tx	first_body_ty	first_body_tz	subtalar_angle_r	ankle_angle_r	knee_angle_r	hip_flexion_r	hip_adduction_r	hip_rotation_r	mtp_angle_r
       25.0100000000	        0.0000000000	        0.0000000000	        0.0000000000	        0.0000000000	        0.0000000000	        0.0000000000	       18.3643485309	      -24.4454866939	     -112.5479942531	      -26.8606135749	        3.1596433795	       25.7570615155	        0.0000000000	
       25.0200000000	        0.0000000000	        0.0000000000	        0.0000000000	        0.0000000000	        0.0000000000	        0.0000000000	       28.3342102315	      -58.8449525997	      -64.1676694109	      -54.2717461028	        6.0128719656	        0.8501933745	        0.0000000000	
       25.0300000000	        0.0000000000	        0.0000000000	        0.0000000000	        0.0000000000	        0.0000000000	        0.0000000000	      -23.5239276802	      -30.3762211110	      -61.8141744792	       22.7203839838	       -7.1173577377	       -3.1737742169	        0.0000000000	
       25.0400000000	        0.0000000000	        0.0000000000	        0.0000000000	        0.0000000000	        0.0000000000	        0.0000000000	      -27.9569043869	       46.2360661230	      -25.4245747929	      116.9087347385	      -13.8281274378	      -38.2478069632	        0.0000000000	
       25.0500000000	        0.0000000000	        0.0000000000	        0.0000000000	        0.0000000000	        0.0000000000	        0.0000000000	      -29.2980574993	       40.7757003197	     -103.3144095617	       89.4318342473	       18.2378613809	       32.6957676825	        0.0000000000	
       25.0600000000	        0.0000000000	        0.0000000000	        0.0000000000	        0.0000000000	        0.0000000000	        0.0000000000	      -20.0220101862	      -19.3498657030	      -93.0962767148	        6.2969250159	      -22.8169699427	      -18.7387133072	        0.0000000000	
       25.0700000000	        0.0000000000	        0.0000000000	        0.0000000000	        0.0000000000	        0.0000000000	        0.0000000000	        1.4925596343	       36.8998714978	      -55.4206456850	      -46.8862753766	       31.1352733257	       11.1298359213	        0.0000000000	
       25.0800000000	        0.0000000000	        0.0000000000	        0.0000000000	        0.0000000000	        0.0000000000	        0.0000000000	      -12.8094267336	       19.8930622939	        3.1119568906	      -54.9554762389	        3.6840151421	      -20.8259375844	        0.0000000000	
       25.0900000000	        0.0000000000	        0.0000000000	        0.0000000000	        0.0000000000	        0.0000000000	        0.0000000000	      -18.9316897190	       -4.9732199104	      -72.5186462304	      -36.5100277514	       -6.8369874520	      -33.3272119073	        0.0000000000	
       25.1000000000	        0.0000000000	        0.0000000000	        0.0000000000	        0.0000000000	        0.0000000000	        0.0000000000	       24.8983834163	       37.1537499897	      -74.0739138043	      -48.5065131248	       37.1492812502	      -32.5020548537	        0.0000000000	
       25.1100000000	        0.0000000000	        0.0000000000	        0.0000000000	        0.0000000000	        0.0000000000	        0.0000000000	      -15.2273753383	      -30.4884171409	      -15.2296613508	      -31.1731182695	      -38.3789467727	       18.9810229130	        0.0000000000	
       25.1200000000	        0.0000000000	        0.0000000000	        0.0000000000	        0.0000000000	        0.0000000000	        0.0000000000	       24.9889156144	       57.1704304397	     -111.5073150419	       99.6940246624	       27.5848538216	       30.5650302433	        0.0000000000	
       25.1300000000	        0.0000000000	        0.0000000000	        0.0000000000	        0.0000000000	        0.0000000000	        0.0000000000	       19.3804264266	       41.8726061603	      -64.9458148696	      -14.6010052397	      -18.5055106929	      -26.5307570735	        0.0000000000	
       25.1400000000	        0.0000000000	        0.0000000000	        0.0000000000	        0.0000000000	        0.0000000000	        0.0000000000	       17.8405892164	      -18.7588542918	       -1.1319678169	       37.9792220157	      -19.7426517463	      -35.3664733832	        0.0000000000	
       25.1500000000	        0.0000000000	        0.0000000000	        0.0000000000	        0.0000000000	        0.0000000000	        0.0000000000	      -18.5864720980	       54.7642445253	      -54.4452703740	      -48.5575986662	        8.4332399895	        9.8141072871	        0.0000000000	
       25.1600000000	        0.0000000000	        0.0000000000	        0.0000000000	        0.0000000000	        0.0000000000	        0.0000000000	        4.2008297663	        6.3762803958	      -87.9154040163	       61.1077487316	       20.2713358155	        9.0179811292	        0.0000000000	
       25.1700000000	        0.0000000000	        0.0000000000	        0.0000000000	        0.0000000000	        0.0000000000	        0.0000000000	      -23.8176638171	       50.5383902605	       -6.6865922281	      -39.0718731239	       36.2231461362	       19.6517092286	        0.0000000000	
       25.1800000000	        0.0000000000	        0.0000000000	        0.0000000000	        0.0000000000	        0.0000000000	        0.0000000000	       13.6306344499	       -5.1053897693	      -64.9055530960	       -1.6983337944	      -24.1582254972	       35.5241792804	        0.0000000000	
       25.1900000000	        0.0000000000	        0.0000000000	        0.0000000000	        0.0000000000	        0.0000000000	        0.0000000000	        9.6927752765	       47.6323935237	     -100.3623824886	       91.9437702844	       35.7166845964	       21.8823555835	        0.0000000000	
       25.2000000000	        0.0000000000	        0.0000000000	        0.0000000000	        0.0000000000	        0.0000000000	        0.0000000000	      -22.5219598385	      -12.9834512910	     -105.6812401398	       24.8677293243	      -26.1300353649	      -24.2446741072	        0.0000000000	
       25.2100000000	        0.0000000000	        0.0000000000	        0.0000000000	        0.0000000000	        0.0000000000	        0.0000000000	      -24.3666456712	       45.3692054370	      -13.1990250013	      100.3738111535	       18.5628266804	      -33.7748724247	        0.0000000000	
       25.2200000000	        0.0000000000	        0.0000000000	        0.0000000000	        0.0000000000	        0.0000000000	        0.0000000000	        6.6205311487	       43.4714186555	      -78.7786146606	      -55.3690354339	       -3.1945933639	        4.2807828989	        0.0000000000	
       25.2300000000	        0.0000000000	        0.0000000000	        0.0000000000	        0.0000000000	        0.0000000000	        0.0000000000	       -0.1827394401	      -49.1373557405	      -29.4121459801	      -68.5429783340	       19.5055047237	       32.5437711571	        0.0000000000	
